<?xml version="1.0" standalone="no"?>
<!DOCTYPE svg PUBLIC "-//W3C//DTD SVG 20010904//EN"
 "http://www.w3.org/TR/2001/REC-SVG-20010904/DTD/svg10.dtd">
<svg version="1.0" xmlns="http://www.w3.org/2000/svg"
 width="700.000000pt" height="700.000000pt" viewBox="0 0 700.000000 700.000000"
 preserveAspectRatio="xMidYMid meet">
<metadata>
Created by potrace 1.14, written by Peter Selinger 2001-2017
</metadata>
<g transform="translate(0.000000,700.000000) scale(0.100000,-0.100000)"
fill="#000000" stroke="none">
<path d="M3317 6484 c-1 -1 -45 -5 -97 -8 -135 -10 -172 -14 -325 -36 -90 -13
-309 -55 -370 -72 -22 -5 -44 -11 -50 -12 -61 -14 -304 -91 -352 -112 -17 -8
-34 -14 -38 -14 -4 0 -61 -23 -128 -52 -229 -98 -440 -216 -657 -365 -156
-108 -459 -385 -577 -528 -141 -170 -230 -296 -323 -458 -140 -246 -249 -520
-315 -797 -19 -79 -55 -279 -60 -335 -4 -38 -8 -81 -11 -95 -2 -14 -6 -88 -10
-165 l-5 -140 127 -155 c125 -153 205 -249 234 -280 8 -9 42 -47 75 -85 338
-392 840 -907 1118 -1147 12 -11 40 -36 62 -56 299 -275 723 -589 1040 -771
245 -141 518 -248 705 -276 269 -41 590 48 985 273 221 126 608 399 805 568
176 152 304 264 395 348 124 114 557 544 655 651 207 225 299 328 446 500 66
77 151 178 189 225 38 47 72 87 75 90 3 3 25 30 49 60 l43 55 -6 151 c-28 734
-322 1429 -826 1959 -378 398 -865 702 -1415 884 -300 99 -567 152 -945 187
-63 6 -487 13 -493 8z"/>
</g>
</svg>
